<svg width="65" height="100" viewBox="0 0 65 100" fill="none" xmlns="http://www.w3.org/2000/svg">
<g clip-path="url(#clip0)">
<path d="M47.8061 43.3183V41.3029C47.7604 41.3029 47.714 41.3029 47.6669 41.3029H12.2971C12.2971 41.3029 12.275 41.314 12.2485 41.3295C12.2839 41.5792 12.3148 41.8377 12.359 42.0918C12.6526 43.8337 13.1726 45.5297 13.9058 47.1368C15.0146 49.5842 16.6302 51.7684 18.6458 53.5451C20.887 55.5467 23.6114 56.9291 26.5502 57.5559C27.2837 57.7165 28.0283 57.8214 28.7777 57.8697C29.1401 57.8918 29.5047 57.8984 29.8671 57.9161C29.9289 57.9161 29.9886 57.9271 30.0593 57.9337V64.2294C29.9886 64.2294 29.9267 64.2405 29.8671 64.2294C24.8119 64.1926 19.9161 62.4561 15.9676 59.2994C11.9192 56.1261 9.15922 52.0425 7.52619 47.181C7.03916 45.7246 6.68272 44.2279 6.46108 42.7084C6.2163 41.0882 6.11793 39.4493 6.16718 37.8115C6.20359 36.776 6.2958 35.7433 6.4434 34.7178C6.81048 32.122 7.56116 29.5952 8.67086 27.22C9.96359 24.4357 11.7533 21.9106 13.9522 19.7686C16.1336 17.6191 18.7135 15.916 21.5473 14.7546C27.0702 12.5085 33.2572 12.5371 38.7592 14.8342C41.5753 16.0195 44.1344 17.7404 46.2946 19.9012C47.9879 21.5824 49.4343 23.4952 50.5904 25.5826C50.6235 25.6422 50.6611 25.6975 50.6965 25.7549C50.7252 25.7328 50.7384 25.7262 50.7429 25.7174C50.7473 25.7085 50.7871 25.64 50.807 25.6002C52.3902 22.5244 54.5914 19.8086 57.2728 17.6229C59.1109 16.1198 61.1695 14.9087 63.3762 14.032C63.7386 13.8884 64.1054 13.758 64.4811 13.6254V11.2698C64.4811 9.83688 64.1986 8.41801 63.6499 7.09433C63.1011 5.77064 62.2968 4.56811 61.283 3.55549C60.2691 2.54288 59.0656 1.74004 57.7412 1.19289C56.4169 0.645741 54.9977 0.365011 53.5648 0.366753H11.4331C8.54142 0.366753 5.76818 1.51546 3.72346 3.56018C1.67874 5.6049 0.530029 8.37814 0.530029 11.2698L0.530029 66.2668C0.530029 67.6986 0.812045 69.1164 1.35998 70.4392C1.9079 71.7621 2.71102 72.964 3.72346 73.9764C4.7359 74.9889 5.93785 75.792 7.26067 76.3399C8.58349 76.8879 10.0013 77.1699 11.4331 77.1699H47.8039C47.8039 65.8912 47.8046 54.6073 47.8061 43.3183Z" fill="#FFC700"/>
<path d="M54.0067 34.5565C54.0067 34.6029 54.0067 34.6515 54.0067 34.72H64.4877V20.3565C62.8806 21.1039 61.3988 22.0952 60.0947 23.2955C56.7623 26.3582 54.7735 30.1303 54.0067 34.5565Z" fill="#FFC700"/>
<path d="M37.5947 21.1696C35.5024 20.1251 33.2151 19.529 30.8792 19.4195C29.7329 19.3666 28.5843 19.4258 27.4496 19.5963C26.3413 19.7669 25.2535 20.0513 24.2034 20.4448C21.3156 21.5206 18.7554 23.3256 16.7719 25.6842C14.7374 28.0717 13.3058 30.9129 12.5976 33.9687C12.5402 34.2074 12.4938 34.4504 12.4385 34.709H47.6779C47.6227 34.4593 47.5785 34.2295 47.5232 34.0018C46.7509 30.6348 45.0992 27.5329 42.7368 25.0125C41.2711 23.4291 39.5284 22.1268 37.5947 21.1696Z" fill="#FFC700"/>
<path d="M54.2786 41.2963H53.9471V41.3737V77.15C56.7699 77.0543 59.4451 75.8659 61.4084 73.8354C63.3716 71.8049 64.4694 69.0912 64.4701 66.2669V41.2963H54.2786Z" fill="#FFC700"/>
<path d="M47.8039 77.1699V98.7197C47.8039 98.9937 47.8039 99.2677 47.8039 99.5417H53.9183C53.9323 99.4613 53.9419 99.3801 53.9471 99.2987V77.15L47.8039 77.1699ZM12.4474 34.709C12.5026 34.4504 12.549 34.2074 12.6065 33.9687C13.3121 30.9137 14.7405 28.0726 16.7719 25.6842C18.7554 23.3256 21.3156 21.5206 24.2034 20.4448C25.2533 20.0498 26.3411 19.7639 27.4496 19.5919C28.5843 19.4214 29.7329 19.3622 30.8792 19.4151C33.2151 19.5246 35.5024 20.1207 37.5947 21.1652C39.5288 22.1237 41.2715 23.4275 42.7368 25.0125C45.0969 27.5336 46.7461 30.6355 47.5166 34.0019C47.5718 34.2228 47.616 34.4593 47.6713 34.709H12.4474Z" fill="#FFC700"/>
</g>
<defs>
<clipPath id="clip0">
<rect width="63.94" height="99.1749" fill="white" transform="translate(0.530029 0.366776)"/>
</clipPath>
</defs>
</svg>
