<?xml version="1.0" encoding="UTF-8"?>
<svg version="1.1" xmlns="http://www.w3.org/2000/svg" width="501" height="602">
<path d="M0 0 C1.40153812 -0.00302817 2.80307459 -0.00692096 4.2046082 -0.01159257 C8.01898036 -0.02179576 11.83325771 -0.01971055 15.64763737 -0.01541197 C19.7759354 -0.01293064 23.90421142 -0.02197632 28.03250122 -0.02944946 C36.1063837 -0.04215997 44.18023286 -0.04399469 52.25412366 -0.0416492 C58.82165392 -0.03986165 65.38917412 -0.04162503 71.95670319 -0.04587364 C72.89365635 -0.04646883 73.83060951 -0.04706402 74.7959552 -0.04767724 C76.69977782 -0.04888908 78.60360045 -0.05010321 80.50742307 -0.05131962 C98.33807722 -0.06218128 116.16871242 -0.06003929 133.99936762 -0.05393478 C150.28272711 -0.04876786 166.56602673 -0.06001757 182.84937438 -0.07903299 C199.6000475 -0.09844301 216.35069234 -0.10666179 233.10137677 -0.10290974 C242.49316965 -0.10100237 251.8849116 -0.10343985 261.27669525 -0.11762428 C269.27290677 -0.12957951 277.26903601 -0.13089683 285.26524875 -0.11883412 C289.33828455 -0.11297413 293.41117019 -0.11176536 297.48419571 -0.12383652 C329.80580473 -0.21294184 356.73427232 3.19321788 381.20587158 26.38569641 C398.72569176 44.27306527 404.88726411 67.89828487 404.70587158 92.26069641 C404.70135986 93.41698547 404.69684814 94.57327454 404.69219971 95.76460266 C404.68049687 98.59668866 404.66410155 101.42866452 404.64337158 104.26069641 C403.94840576 104.53115784 403.25343994 104.80161926 402.53741455 105.08027649 C359.71846465 121.95803083 324.02649478 151.50781923 301.80157471 192.04243469 C298.94787945 197.15919379 298.94787945 197.15919379 295.64337158 198.26069641 C294.97692627 197.12374329 294.31048096 195.98679016 293.62384033 194.81538391 C284.74415712 179.85858613 274.61694176 166.84215553 262.64337158 154.26069641 C261.99110596 153.55557922 261.33884033 152.85046204 260.66680908 152.12397766 C234.45470967 124.62915849 196.01431827 107.00096399 158.64337158 102.26069641 C157.85188721 102.14983704 157.06040283 102.03897766 156.24493408 101.92475891 C140.54015699 100.09170922 124.22256793 100.65939284 108.64337158 103.26069641 C107.90054932 103.38428528 107.15772705 103.50787415 106.39239502 103.63520813 C87.65429854 106.88971962 70.33148035 113.20839338 53.64337158 122.26069641 C52.47548096 122.87557922 51.30759033 123.49046204 50.10430908 124.12397766 C35.35945661 132.16208572 22.67535692 142.62866627 10.64337158 154.26069641 C9.91891846 154.93358704 9.19446533 155.60647766 8.44805908 156.29975891 C-13.06460381 176.76727219 -28.29935687 205.33204126 -37.35662842 233.26069641 C-37.5893042 233.95260071 -37.82197998 234.644505 -38.06170654 235.3573761 C-55.27897595 286.8865542 -49.06980284 344.4006024 -25.56414795 392.85298157 C-16.70525746 410.51702887 -5.05526052 426.07698527 8.64337158 440.26069641 C9.56297351 441.24345961 10.48224095 442.22653592 11.40118408 443.20991516 C44.75113162 478.31784443 89.48810553 492.97079413 136.64337158 496.26069641 C136.64337158 480.42069641 136.64337158 464.58069641 136.64337158 448.26069641 C132.02337158 448.26069641 127.40337158 448.26069641 122.64337158 448.26069641 C119.70891689 447.99712264 116.95972642 447.70641569 114.08087158 447.19819641 C113.34038574 447.06880676 112.5998999 446.93941711 111.8369751 446.80610657 C84.00331009 441.50252822 60.82257824 427.70019608 40.64337158 408.26069641 C39.94985596 407.63034485 39.25634033 406.99999329 38.54180908 406.35054016 C14.82198838 384.14371213 0.8341711 350.16869158 -2.35662842 318.26069641 C89.05337158 318.26069641 180.46337158 318.26069641 274.64337158 318.26069641 C274.64337158 410.66069641 274.64337158 503.06069641 274.64337158 598.26069641 C202.80427637 598.38169046 202.80427637 598.38169046 172.74298096 598.40718079 C165.86301655 598.41305378 158.98305234 598.41911505 152.10308838 598.42549133 C150.80977566 598.4266782 150.80977566 598.4266782 149.4903354 598.42788905 C135.5979391 598.44091219 121.70558031 598.46454989 107.8132062 598.4921548 C93.53993982 598.52027855 79.26669299 598.53688736 64.99340004 598.5429619 C56.19667683 598.54706393 47.40005965 598.55998686 38.60336911 598.58444581 C32.55884292 598.6003892 26.51437099 598.60507746 20.46982533 598.60120054 C16.99026389 598.59929227 13.5108868 598.60207162 10.03135872 598.61831284 C-20.5904074 598.74012995 -45.48315363 595.11057336 -68.35662842 573.26069641 C-68.97151123 572.72057922 -69.58639404 572.18046204 -70.21990967 571.62397766 C-84.35454813 558.72408923 -91.53727635 538.8720777 -93.35662842 520.26069641 C-93.44454792 517.63783107 -93.49484576 515.04257965 -93.48805618 512.42092228 C-93.49010882 511.6705235 -93.49216145 510.92012471 -93.49427629 510.14698657 C-93.49991312 507.6423163 -93.49849316 505.13770159 -93.49707031 502.63302612 C-93.49965586 500.81507506 -93.50266955 498.99712456 -93.50607371 497.17917484 C-93.51412482 492.19057159 -93.51593223 487.20198275 -93.51667118 482.21337378 C-93.51852505 476.83004028 -93.52607411 471.4467142 -93.5328064 466.06338501 C-93.54637726 454.29449861 -93.55241262 442.52561561 -93.55681705 430.75672269 C-93.55958183 423.40420984 -93.56381964 416.05169829 -93.56832123 408.69918633 C-93.58051274 388.33129871 -93.59081198 367.96341215 -93.59419632 347.59552097 C-93.59441589 346.29239432 -93.59463545 344.98926767 -93.59486167 343.64665234 C-93.59507995 342.34045293 -93.59529823 341.03425353 -93.59552312 339.68847233 C-93.59596658 337.04172997 -93.59641314 334.3949876 -93.59686279 331.74824524 C-93.59708422 330.4353768 -93.59730565 329.12250836 -93.59753379 327.76985603 C-93.60147999 306.50696135 -93.61892912 285.24410097 -93.64222232 263.98121954 C-93.66595905 242.1366131 -93.67839924 220.29202386 -93.67956424 198.44740433 C-93.68047974 186.1883116 -93.68620057 173.92926357 -93.70438385 161.67018318 C-93.71981624 151.22912788 -93.72488683 140.78813108 -93.71664575 130.34706653 C-93.71275024 125.02448543 -93.71361494 119.70202204 -93.72770309 114.37945557 C-93.74050813 109.49678425 -93.73918698 104.61431831 -93.72711238 99.73164701 C-93.72516675 97.97520031 -93.72818069 96.21873873 -93.73695675 94.46231288 C-93.80310786 80.31518759 -93.06104503 65.6345856 -87.23162842 52.51069641 C-86.93014893 51.81299133 -86.62866943 51.11528625 -86.3180542 50.3964386 C-78.92256552 33.96786192 -66.19687279 19.88139912 -50.35662842 11.26069641 C-49.54838623 10.80307922 -48.74014404 10.34546204 -47.90740967 9.87397766 C-32.93033886 1.84279476 -16.75173027 -0.04971514 0 0 Z " fill="#FBBC2A" transform="translate(93.35662841796875,1.7393035888671875)"/>
<path d="M0 0 C21.62274863 18.58552446 36.90136614 42.29730575 45.625 69.4375 C45.87209717 70.20223633 46.11919434 70.96697266 46.3737793 71.75488281 C48.02101466 77.15523089 48.53425331 81.55827979 49.1875 87.4375 C-41.2325 87.4375 -131.6525 87.4375 -224.8125 87.4375 C-220.89803007 52.20727062 -198.97558074 18.55543201 -171.8125 -3.5625 C-120.2461509 -43.45745321 -49.77373228 -41.68532215 0 0 Z " fill="#FBBD2A" transform="translate(317.8125,182.5625)"/>
<path d="M0 0 C27.39 0 54.78 0 83 0 C83.06785381 25.9135454 83.1230613 51.82701831 83.15543652 77.74063015 C83.17087184 89.77414072 83.1918973 101.80759197 83.22631836 113.84106445 C83.25632313 124.33566726 83.27559921 134.83022708 83.28226548 145.3248716 C83.28615904 150.87603809 83.29523921 156.42708165 83.31719017 161.97820854 C83.33773072 167.21567737 83.34379871 172.45297399 83.33932304 177.69047928 C83.34014046 179.60067878 83.34600047 181.51088476 83.35761642 183.42104912 C83.50623366 209.14761339 78.46390403 232.14731797 61 252 C60.33355469 252.76183594 59.66710937 253.52367187 58.98046875 254.30859375 C43.41828813 270.96792254 22.24895515 278.1459204 0 280 C0 187.6 0 95.2 0 0 Z " fill="#FBBC2A" transform="translate(415,320)"/>
<path d="M0 0 C0 36.96 0 73.92 0 112 C-27.39 112 -54.78 112 -83 112 C-78.18578425 83.11470549 -67.5095503 57.08259616 -48 35 C-47.36408936 34.26571777 -47.36408936 34.26571777 -46.71533203 33.51660156 C-38.27886722 23.7947857 -28.97803883 15.88183288 -18.3125 8.6875 C-17.70696289 8.27870605 -17.10142578 7.86991211 -16.47753906 7.44873047 C-5.17115674 0 -5.17115674 0 0 0 Z " fill="#FBBC2A" transform="translate(498,158)"/>
</svg>
