<svg xmlns="http://www.w3.org/2000/svg" viewBox="0 0 419 161"><path d="M70.1,63.6h0V60.7H17.4c0,.4.1.7.1,1.1a32.6,32.6,0,0,0,2.3,7.5,28.6,28.6,0,0,0,7,9.5,24.9,24.9,0,0,0,11.8,5.9,18.8,18.8,0,0,0,3.3.5h1.9v9.3h-.3a32.8,32.8,0,0,1-20.6-7.3A37.1,37.1,0,0,1,10.4,69.4a31.7,31.7,0,0,1-1.6-6.6,36.2,36.2,0,0,1-.4-7.3,35.7,35.7,0,0,1,.4-4.6,37.2,37.2,0,0,1,3.3-11.1,38.5,38.5,0,0,1,7.8-11.1,38.3,38.3,0,0,1,11.2-7.4,33.6,33.6,0,0,1,25.5.1,34.4,34.4,0,0,1,11.2,7.5,37.9,37.9,0,0,1,6.4,8.5c0,.1.1.1.1.2h.1a.3.3,0,0,1,.1-.2,36.7,36.7,0,0,1,9.6-11.8,34.2,34.2,0,0,1,9-5.4l1.6-.6V16.2A16.1,16.1,0,0,0,78.6,0H16.2A16.1,16.1,0,0,0,0,16.2V97.6a16.1,16.1,0,0,0,16.2,16.2H70c0-16.7,0-33.4.1-50.2" style="fill:#fdc401"/><path d="M79.2,50.7v.2H94.7V29.6A31,31,0,0,0,88.2,34a29,29,0,0,0-9,16.7" style="fill:#fdc401"/><path d="M54.9,30.8A26,26,0,0,0,45,28.2a29.1,29.1,0,0,0-5.1.3,18.9,18.9,0,0,0-4.8,1.3,25.9,25.9,0,0,0-11,7.7,28.7,28.7,0,0,0-6.2,12.3l-.3,1.1H69.9l-.3-1.1a29.5,29.5,0,0,0-7-13.3,29.1,29.1,0,0,0-7.7-5.7" style="fill:#fdc401"/><path d="M79.6,60.6h-.4v.2h0v53A16.1,16.1,0,0,0,94.7,97.6v-37H79.6" style="fill:#fdc401"/><path d="M70,113.8V161h9.1V113.8H70M17.6,50.9l.3-1.1a28.7,28.7,0,0,1,6.2-12.3,25.9,25.9,0,0,1,11-7.7,18.9,18.9,0,0,1,4.8-1.3,29.1,29.1,0,0,1,5.1-.3,26,26,0,0,1,9.9,2.6,29.1,29.1,0,0,1,7.7,5.7,29.5,29.5,0,0,1,7,13.3l.3,1.1Z" style="fill:#fdc401"/><polygon points="125.3 3.6 125.3 15.2 141.3 15.2 141.3 18.4 125.3 18.4 125.3 31 142 31 142 34.3 121.9 34.3 121.9 0.2 142 0.2 142 3.6 125.3 3.6" style="fill:#fff"/><polygon points="156.7 0.2 156.7 30.7 172.6 30.7 172.6 34.3 152.9 34.3 152.9 0.2 156.7 0.2" style="fill:#fff"/><polygon points="186.7 3.6 186.7 15.2 202.7 15.2 202.7 18.4 186.7 18.4 186.7 31 203.4 31 203.4 34.3 183.3 34.3 183.3 0.2 203.4 0.2 203.4 3.6 186.7 3.6" style="fill:#fff"/><path d="M214.1,34.3V.2h14.7a18.3,18.3,0,0,1,3.5.3A5.9,5.9,0,0,1,235,1.9a7.4,7.4,0,0,1,2,3.8,25.9,25.9,0,0,1,.5,5.1,20.3,20.3,0,0,1-.4,4.5,6.9,6.9,0,0,1-1.6,3.2,6.2,6.2,0,0,1-1.9,1.4,5.8,5.8,0,0,1-2.1.7l-3,.2H217.6V34.3Zm3.5-16.6h8.3a25.1,25.1,0,0,0,4.8-.4,3.6,3.6,0,0,0,2.4-1.9,10.7,10.7,0,0,0,.8-4.7,15.3,15.3,0,0,0-.4-4.1,3.6,3.6,0,0,0-1.4-2.3,6.4,6.4,0,0,0-3.4-.7H217.6Z" style="fill:#fff"/><polygon points="273.4 0.2 273.4 34.3 269.8 34.3 269.8 18.5 251.5 18.5 251.5 34.3 248 34.3 248 0.2 251.5 0.2 251.5 15.2 269.8 15.2 269.8 0.2 273.4 0.2" style="fill:#fff"/><path d="M306.5,27H290.7l-2.3,7.3h-3.8L296.1.2h5l11.6,34.1H309Zm-.9-3.1L298.6,3l-6.9,20.9Z" style="fill:#fff"/><polygon points="350.3 0.2 350.3 34.3 344.6 34.3 327 3.5 327 34.3 323.6 34.3 323.6 0.2 329.3 0.2 346.9 31.4 346.9 0.2 350.3 0.2" style="fill:#fff"/><polygon points="374.7 3.8 374.7 34.3 371.1 34.3 371.1 3.8 361 3.8 361 0.2 384.7 0.2 384.7 3.8 374.7 3.8" style="fill:#fff"/><path d="M418.4,9.6H415a16.1,16.1,0,0,0-.6-4,3,3,0,0,0-1.7-1.8,8.9,8.9,0,0,0-3.7-.6h-1.8c-3.2,0-5.3.4-6.4,1.1s-1.6,2.3-1.6,4.7a14.2,14.2,0,0,0,.3,3.3,3.2,3.2,0,0,0,1.4,1.8,5.6,5.6,0,0,0,2.9.8l4.6.2a26.1,26.1,0,0,1,6.3.8,6,6,0,0,1,3.1,2.6,11.4,11.4,0,0,1,1.2,5.8,23.5,23.5,0,0,1-.4,5,5.9,5.9,0,0,1-1.8,3.3,6.7,6.7,0,0,1-4.1,1.6,52.1,52.1,0,0,1-6,.3,30,30,0,0,1-4.7-.3,9.2,9.2,0,0,1-3.4-1.2,5.4,5.4,0,0,1-2.3-2.8,11.4,11.4,0,0,1-.8-4.9V23.7h3.4a17.5,17.5,0,0,0,.5,4.7,3.3,3.3,0,0,0,1.9,2.1,11.6,11.6,0,0,0,4.3.6h3a14.7,14.7,0,0,0,4.2-.4,2.8,2.8,0,0,0,2.1-1.7,11.2,11.2,0,0,0,.6-4.3,10.1,10.1,0,0,0-.4-3.5,2.4,2.4,0,0,0-1.4-1.7,6,6,0,0,0-3.1-.6l-5.8-.3a15.8,15.8,0,0,1-4.8-.9,6.6,6.6,0,0,1-3.2-2.8,11,11,0,0,1-1.2-5.7,11.5,11.5,0,0,1,1.3-5.9A6.2,6.2,0,0,1,400.5.6a23.8,23.8,0,0,1,5.9-.6h.8l4.8.2a11.3,11.3,0,0,1,3.4,1.1A6,6,0,0,1,417.6,4a11.9,11.9,0,0,1,.8,5Z" style="fill:#fff"/><path d="M263.8,78.8c0,23.3-14.2,36.4-39.5,36.4-11.8,0-20.6-2.5-27.2-7.7S185,91.6,185,80.1c0-22.2,15.2-35.5,40.5-35.5,23.4,0,38.3,13.2,38.3,34.2m-58.8.4c0,13.6,7.9,22.8,19.6,22.8s19.2-8.3,19.2-21.9S236.7,58,224.5,58,205,66,205,79.2" style="fill:#fff"/><path d="M349.9,78.8c0,23.3-14.2,36.4-39.5,36.4-11.8,0-20.6-2.5-27.1-7.7s-12.2-15.9-12.2-27.4c0-22.2,15.2-35.5,40.5-35.5,23.5,0,38.3,13.2,38.3,34.2m-58.8.4c0,13.6,7.9,22.8,19.6,22.8s19.2-8.3,19.2-21.9S322.8,58,310.6,58s-19.5,8-19.5,21.2" style="fill:#fff"/><path d="M418.3,46H353.5V60.8h23.7v53.3h17.5v-.3h0v-51h0v-2h23.6Z" style="fill:#fff"/><path d="M139.1,60.4h41.5V46h-59V57.8h0v56.3h17.5V84.3h35.5V69.9H139.1Z" style="fill:#fff"/><path d="M125,141a3.5,3.5,0,0,0,.8,2.4,4.8,4.8,0,0,0,2,1.4l2.8.8,3.1.8a10.2,10.2,0,0,1,2.8,1.1,4.7,4.7,0,0,1,2.1,2.1,6.8,6.8,0,0,1,.8,3.4,7.1,7.1,0,0,1-2.4,5.3c-1.5,1.6-3.7,2.3-6.4,2.3a11.1,11.1,0,0,1-6.5-1.8,5.9,5.9,0,0,1-2.5-5h3.7a4.4,4.4,0,0,0,1.4,2.9,5.9,5.9,0,0,0,3.8,1.1,6.2,6.2,0,0,0,4-1.3,4.2,4.2,0,0,0,.7-5.7,3.9,3.9,0,0,0-2.1-1.4,15.8,15.8,0,0,0-2.8-.8l-3.1-.8a13.9,13.9,0,0,1-2.8-1.2,4.5,4.5,0,0,1-2-2.1,7.4,7.4,0,0,1,1.6-8.8,8.9,8.9,0,0,1,6.2-2,9.6,9.6,0,0,1,6.1,1.7,6.8,6.8,0,0,1,2.6,4.9H135a3.6,3.6,0,0,0-1.4-2.6,6.4,6.4,0,0,0-7.2,0A3.7,3.7,0,0,0,125,141" style="fill:#fdc401"/><path d="M152.6,160.7a9.8,9.8,0,0,1-7.4-3,11.3,11.3,0,0,1-2.8-7.8,11,11,0,0,1,2.9-7.9,10.1,10.1,0,0,1,7.4-2.9,9.6,9.6,0,0,1,7.3,2.8,9.3,9.3,0,0,1,2.8,7.1,12.5,12.5,0,0,1-.2,2.1H146a7,7,0,0,0,1.9,4.9,6.4,6.4,0,0,0,4.7,1.8,6.9,6.9,0,0,0,3.6-.9,5.7,5.7,0,0,0,2.1-2.5h3.8a9.6,9.6,0,0,1-3.5,4.5,9.7,9.7,0,0,1-6,1.8m4.6-17a6.2,6.2,0,0,0-4.6-1.8,6.3,6.3,0,0,0-4.6,1.8,7.1,7.1,0,0,0-2,4.9h13.2a7,7,0,0,0-2-4.9" style="fill:#fdc401"/><path d="M169.8,139.4V143a6.5,6.5,0,0,1,6.4-3.9v3.6h-.9a5.6,5.6,0,0,0-4.1,1.4c-.9.9-1.4,2.5-1.4,4.8v11.5h-3.5v-21Z" style="fill:#fdc401"/><polygon points="177.2 139.4 180.9 139.4 187.3 157.1 193.8 139.4 197.5 139.4 189.3 160.4 185.4 160.4 177.2 139.4" style="fill:#fdc401"/><path d="M203.5,135.4a2.4,2.4,0,0,1-3.4,0,2.5,2.5,0,0,1-.6-1.7,2.2,2.2,0,0,1,.7-1.7,2.4,2.4,0,0,1,1.6-.7,2.4,2.4,0,0,1,1.7,4.1m-3.5,4h3.5v21H200Z" style="fill:#fdc401"/><path d="M209.9,157.7a10.8,10.8,0,0,1-2.8-7.8c0-3.3.9-5.9,2.8-7.8a9.6,9.6,0,0,1,7.4-3,10.5,10.5,0,0,1,6.1,1.7,9.2,9.2,0,0,1,3.3,5H223a5.4,5.4,0,0,0-2.1-2.8,6.1,6.1,0,0,0-3.6-1.1,6,6,0,0,0-4.8,2.1,10.6,10.6,0,0,0,0,11.8,6.3,6.3,0,0,0,4.8,2c2.9,0,4.8-1.3,5.7-3.8h3.7a9.4,9.4,0,0,1-3.3,4.9,10,10,0,0,1-6.1,1.8,9.6,9.6,0,0,1-7.4-3" style="fill:#fdc401"/><path d="M239.4,160.7a9.4,9.4,0,0,1-7.3-3,12.1,12.1,0,0,1,0-15.7,10.1,10.1,0,0,1,7.4-2.9,9.6,9.6,0,0,1,7.3,2.8,9.3,9.3,0,0,1,2.8,7.1,12.5,12.5,0,0,1-.2,2.1H232.8a7,7,0,0,0,1.9,4.9,6.4,6.4,0,0,0,4.7,1.8,6.9,6.9,0,0,0,3.6-.9,5.1,5.1,0,0,0,2.1-2.5h3.8a10,10,0,0,1-3.4,4.5,10.2,10.2,0,0,1-6.1,1.8m4.7-17a6.6,6.6,0,0,0-4.7-1.8,6.5,6.5,0,0,0-4.6,1.8,7.1,7.1,0,0,0-2,4.9H246a7.4,7.4,0,0,0-1.9-4.9" style="fill:#fdc401"/><path d="M271.3,146.4H280v3.1h-1.9a6.4,6.4,0,0,1,.4,2.4,9.8,9.8,0,0,1-.7,3.3,8,8,0,0,1-2,2.8,8.6,8.6,0,0,1-6.3,2.6,9.8,9.8,0,0,1-3.4-.7,9.1,9.1,0,0,1-2.9-1.9,7.7,7.7,0,0,1-1.9-2.8,7.8,7.8,0,0,1-.7-3.3,8.3,8.3,0,0,1,1-4.1,9.2,9.2,0,0,1,2.8-3.1,6.8,6.8,0,0,1-1.7-2.1,6.7,6.7,0,0,1-.6-2.8,5.2,5.2,0,0,1,.5-2.4,6,6,0,0,1,1.4-2.1,7.4,7.4,0,0,1,2.1-1.3,5.3,5.3,0,0,1,2.5-.5,5.1,5.1,0,0,1,2.5.5,7.4,7.4,0,0,1,2.1,1.3,6,6,0,0,1,1.4,2.1,5.3,5.3,0,0,1,.6,2.4h-3.1a3.1,3.1,0,0,0-.3-1.3,2.3,2.3,0,0,0-.7-1,4.1,4.1,0,0,0-1.1-.7,3.4,3.4,0,0,0-2.8,0,4.1,4.1,0,0,0-1.1.7,3.6,3.6,0,0,0-.7,1,3.1,3.1,0,0,0-.3,1.3,2.8,2.8,0,0,0,.3,1.3,3,3,0,0,0,1.8,1.8,3.5,3.5,0,0,0,1.4.3h2.7v3h-1.8a8.5,8.5,0,0,0-2.3.4,7,7,0,0,0-3.1,3.1,5.4,5.4,0,0,0-.5,2.2,5.9,5.9,0,0,0,.5,2.2,4.6,4.6,0,0,0,1.3,1.8,5.7,5.7,0,0,0,1.8,1.2,6.8,6.8,0,0,0,4.6,0,6.2,6.2,0,0,0,1.9-1.2,5.9,5.9,0,0,0,1.3-1.8,5.7,5.7,0,0,0,.4-2.2,4.8,4.8,0,0,0-.6-2.4h-3.5Z" style="fill:#fdc401"/><path d="M294.2,156.8a13.1,13.1,0,0,1-3.9-9.7,12.7,12.7,0,0,1,3.9-9.6,13,13,0,0,1,9.6-3.8,13.7,13.7,0,0,1,7.3,1.9,12,12,0,0,1,4.8,5.6h-4.2a8.3,8.3,0,0,0-7.9-4.5,9.8,9.8,0,0,0-7.2,2.9,11.6,11.6,0,0,0,0,15.1,9.7,9.7,0,0,0,7.2,2.8,10.5,10.5,0,0,0,4.7-1.1,8.8,8.8,0,0,0,3.2-3.4h4.2a11.5,11.5,0,0,1-4.8,5.6,13.8,13.8,0,0,1-7.3,2,13.4,13.4,0,0,1-9.6-3.8" style="fill:#fdc401"/><path d="M322,157.6a12.3,12.3,0,0,1,0-15.6,9.8,9.8,0,0,1,7.2-2.9,8.8,8.8,0,0,1,4.6,1.2,8.9,8.9,0,0,1,3.1,3.3v-4.2h3.5v21h-3.5v-4.3a7.6,7.6,0,0,1-3.1,3.3,8,8,0,0,1-4.6,1.3,9.2,9.2,0,0,1-7.2-3.1m12.8-2a8.8,8.8,0,0,0,0-11.4,6.9,6.9,0,0,0-5-2.1,7.2,7.2,0,0,0-5,2,7.7,7.7,0,0,0-2.1,5.7,8,8,0,0,0,2.1,5.7,6.6,6.6,0,0,0,5,2.2,6.9,6.9,0,0,0,5-2.1" style="fill:#fdc401"/><path d="M348.8,139.4V143a6.6,6.6,0,0,1,6.4-3.9v3.6h-.9a5.6,5.6,0,0,0-4.1,1.4c-.9.9-1.4,2.5-1.4,4.8v11.5h-3.5v-21Z" style="fill:#fdc401"/><path d="M367.4,160.7a9.4,9.4,0,0,1-7.3-3,12.1,12.1,0,0,1,0-15.7,10.1,10.1,0,0,1,7.4-2.9,9.5,9.5,0,0,1,7.3,2.8,9.3,9.3,0,0,1,2.8,7.1,13.4,13.4,0,0,1-.1,2.1H360.8a6.7,6.7,0,0,0,2,4.9,6.2,6.2,0,0,0,4.6,1.8,6.9,6.9,0,0,0,3.6-.9,5.1,5.1,0,0,0,2.1-2.5h3.8a9.6,9.6,0,0,1-9.5,6.3m4.7-17a6.6,6.6,0,0,0-4.7-1.8,6.5,6.5,0,0,0-4.6,1.8,7.6,7.6,0,0,0-2,4.9H374a7,7,0,0,0-1.9-4.9" style="fill:#fdc401"/></svg>