<svg xmlns="http://www.w3.org/2000/svg" viewBox="0 0 431.8 153.6"><path d="M73.2,66.5h0V63.4H18.1a5,5,0,0,1,.2,1.2,35.2,35.2,0,0,0,2.4,7.8,29.3,29.3,0,0,0,7.4,10,26.8,26.8,0,0,0,12.2,6.2l3.5.5h1.9v9.7h-.3a35,35,0,0,1-21.5-7.6A39.6,39.6,0,0,1,10.8,72.5a40.6,40.6,0,0,1-1.6-6.9A48.5,48.5,0,0,1,8.7,58a39.1,39.1,0,0,1,.5-4.8,39.6,39.6,0,0,1,3.4-11.6A40.8,40.8,0,0,1,20.8,30a36.6,36.6,0,0,1,11.7-7.7,34.8,34.8,0,0,1,26.7.1,37.2,37.2,0,0,1,11.7,7.9,38.2,38.2,0,0,1,6.6,8.8l.2.2h.1c0-.1,0-.2.1-.2a38.8,38.8,0,0,1,10-12.4,34.1,34.1,0,0,1,9.4-5.5l1.7-.7V16.9A16.9,16.9,0,0,0,82.1,0H16.9A16.9,16.9,0,0,0,0,16.9v85.2a16.9,16.9,0,0,0,16.9,16.8H73.2V66.5" style="fill:#fbc205"/><path d="M82.8,53v.2H99V31a27.7,27.7,0,0,0-6.8,4.5A30.5,30.5,0,0,0,82.8,53" style="fill:#fbc205"/><path d="M57.4,32.2A26.7,26.7,0,0,0,47,29.5a23.6,23.6,0,0,0-5.3.3,21.7,21.7,0,0,0-5,1.3,26.9,26.9,0,0,0-11.5,8.1A30.6,30.6,0,0,0,18.7,52l-.3,1.2H73c-.1-.4-.1-.8-.2-1.1a30.3,30.3,0,0,0-7.4-13.9,27.6,27.6,0,0,0-8-6" style="fill:#fbc205"/><path d="M83.2,63.4h-.5v55.4A16.8,16.8,0,0,0,99,102.1V63.4H83.2" style="fill:#fbc205"/><path d="M73.2,118.9v34.7h9.5V118.9H73.2M18.4,53.2l.3-1.2a30.6,30.6,0,0,1,6.5-12.8,26.9,26.9,0,0,1,11.5-8.1,21.7,21.7,0,0,1,5-1.3,23.6,23.6,0,0,1,5.3-.3,26.7,26.7,0,0,1,10.4,2.7,27.6,27.6,0,0,1,8,6,30.3,30.3,0,0,1,7.4,13.9c.1.3.1.7.2,1.1Z" style="fill:#fbc205"/><path d="M128.4,39.6a4.1,4.1,0,0,0,1,2.9,5.1,5.1,0,0,0,2.5,1.7,26.2,26.2,0,0,0,3.3.9l3.7,1a15.1,15.1,0,0,1,3.4,1.3,7.5,7.5,0,0,1,2.5,2.5,8.6,8.6,0,0,1,.9,4.1,8.4,8.4,0,0,1-2.8,6.4,10.4,10.4,0,0,1-7.7,2.8,12.6,12.6,0,0,1-7.8-2.2,7.3,7.3,0,0,1-3.1-6.1h4.5a4.9,4.9,0,0,0,1.7,3.5,6.7,6.7,0,0,0,4.6,1.4,7.3,7.3,0,0,0,4.8-1.6,4.7,4.7,0,0,0,1.8-3.6,4.6,4.6,0,0,0-3.5-4.9l-3.3-1a26.2,26.2,0,0,1-3.8-.9,16.4,16.4,0,0,1-3.3-1.4,6.7,6.7,0,0,1-2.5-2.5,8.7,8.7,0,0,1-1-4.2,8.1,8.1,0,0,1,2.9-6.4,10.8,10.8,0,0,1,7.5-2.5,11.7,11.7,0,0,1,7.3,2.1,8.2,8.2,0,0,1,3.1,5.9h-4.6a4.6,4.6,0,0,0-1.8-3.2,6,6,0,0,0-4.2-1.3,6.8,6.8,0,0,0-4.4,1.3,5,5,0,0,0-1.7,4" style="fill:#fff"/><path d="M161.5,63.3a11.6,11.6,0,0,1-8.8-3.6,13.3,13.3,0,0,1-3.3-9.4c0-3.9,1.1-7.1,3.4-9.4a12.1,12.1,0,0,1,21,8.4,16.6,16.6,0,0,1-.2,2.4h-20a8.6,8.6,0,0,0,2.4,6,7.5,7.5,0,0,0,5.5,2.1,7.8,7.8,0,0,0,4.4-1.1,8.3,8.3,0,0,0,2.6-3h4.4a10.9,10.9,0,0,1-4.1,5.4,11.3,11.3,0,0,1-7.3,2.2m5.7-20.4a8,8,0,0,0-5.6-2.2,7.8,7.8,0,0,0-5.5,2.2,8,8,0,0,0-2.4,5.8h15.8a8.2,8.2,0,0,0-2.3-5.8" style="fill:#fff"/><path d="M182.2,37.7V42a8,8,0,0,1,7.7-4.7v4.4h-1.1a6.7,6.7,0,0,0-4.9,1.6c-1.1,1.1-1.7,3.1-1.7,5.8V62.9h-4.1V37.7Z" style="fill:#fff"/><polygon points="191.1 37.7 195.6 37.7 203.3 59 211 37.7 215.5 37.7 205.6 62.9 200.9 62.9 191.1 37.7" style="fill:#fff"/><path d="M222.7,32.9a3,3,0,0,1-2,.8,2.8,2.8,0,0,1-2-.8,2.7,2.7,0,0,1-.8-2,2.7,2.7,0,0,1,2.8-2.9,3,3,0,0,1,2,.8,3.2,3.2,0,0,1,.8,2.1,3.2,3.2,0,0,1-.8,2m-4.1,4.8h4.1V62.9h-4.1Z" style="fill:#fff"/><path d="M230.4,59.7a13.4,13.4,0,0,1-3.4-9.4,13.4,13.4,0,0,1,3.4-9.4,11.6,11.6,0,0,1,8.8-3.6,12.2,12.2,0,0,1,7.4,2.1,10.7,10.7,0,0,1,4,6h-4.5a6.6,6.6,0,0,0-2.5-3.4,7.6,7.6,0,0,0-4.4-1.3,7.3,7.3,0,0,0-5.7,2.5c-1.5,1.7-2.2,4.1-2.2,7.1s.7,5.4,2.2,7.1a7.2,7.2,0,0,0,5.7,2.4c3.6,0,5.9-1.5,6.9-4.6h4.5a11.6,11.6,0,0,1-4,5.9,12.5,12.5,0,0,1-7.4,2.2,11.6,11.6,0,0,1-8.8-3.6" style="fill:#fff"/><path d="M265.8,63.3a11.6,11.6,0,0,1-8.8-3.6,12.9,12.9,0,0,1-3.4-9.4c0-3.9,1.1-7.1,3.4-9.4a11.8,11.8,0,0,1,8.9-3.6,11.5,11.5,0,0,1,8.8,3.4,11.4,11.4,0,0,1,3.4,8.6,16.6,16.6,0,0,1-.2,2.4h-20a9,9,0,0,0,2.3,6,7.8,7.8,0,0,0,5.6,2.1,7.5,7.5,0,0,0,4.3-1.1,6.8,6.8,0,0,0,2.6-3h4.5a11.6,11.6,0,0,1-11.4,7.6m5.6-20.4a8.1,8.1,0,0,0-11.1,0,8.8,8.8,0,0,0-2.4,5.8h15.8a7.8,7.8,0,0,0-2.3-5.8" style="fill:#fff"/><path d="M304.1,46.2h10.5v3.6h-2.3a10.5,10.5,0,0,1-.4,6.9,9.8,9.8,0,0,1-2.3,3.4,10.7,10.7,0,0,1-7.6,3,11.1,11.1,0,0,1-4.1-.8,9.9,9.9,0,0,1-3.5-2.2,9.8,9.8,0,0,1-2.3-3.4,9.2,9.2,0,0,1-.8-4,10.2,10.2,0,0,1,1.2-4.9,10.6,10.6,0,0,1,3.3-3.7,8.6,8.6,0,0,1-2-2.6,7.3,7.3,0,0,1-.8-3.3,5.9,5.9,0,0,1,.7-2.9,7.2,7.2,0,0,1,1.6-2.5,8.1,8.1,0,0,1,5.6-2.2,7.3,7.3,0,0,1,3,.6,7.2,7.2,0,0,1,2.5,1.6,6.2,6.2,0,0,1,1.7,2.5,7.2,7.2,0,0,1,.6,2.9h-3.6a4,4,0,0,0-.3-1.5,3.8,3.8,0,0,0-.9-1.3l-1.4-.8a2.9,2.9,0,0,0-1.6-.4,3.3,3.3,0,0,0-1.7.4,5.7,5.7,0,0,0-1.3.8,3.8,3.8,0,0,0-.9,1.3,4,4,0,0,0-.3,1.5,4.1,4.1,0,0,0,.3,1.6,2.7,2.7,0,0,0,.9,1.2,3.8,3.8,0,0,0,1.3.9,4.7,4.7,0,0,0,1.7.3h3.2v3.7H302a8.7,8.7,0,0,0-2.8.5,6.6,6.6,0,0,0-2.2,1.5,5.1,5.1,0,0,0-1.5,2.1,6.3,6.3,0,0,0-.6,2.7,5.8,5.8,0,0,0,.6,2.6,5.4,5.4,0,0,0,1.5,2.2,6.4,6.4,0,0,0,2.2,1.4,6.6,6.6,0,0,0,2.8.5,6.2,6.2,0,0,0,2.7-.5,5.9,5.9,0,0,0,2.3-1.4,5.4,5.4,0,0,0,1.5-2.2,5.8,5.8,0,0,0,.6-2.6,6.9,6.9,0,0,0-.7-2.9h-4.3Z" style="fill:#fff"/><path d="M331.6,58.6A15.8,15.8,0,0,1,326.9,47a15.5,15.5,0,0,1,4.7-11.6,15.7,15.7,0,0,1,11.5-4.6,17.2,17.2,0,0,1,8.8,2.3,13.7,13.7,0,0,1,5.7,6.8h-5c-1.9-3.6-5.1-5.4-9.5-5.4a11.7,11.7,0,0,0-8.5,3.4,12.2,12.2,0,0,0-3.4,9.1c0,3.7,1.1,6.8,3.4,9a12,12,0,0,0,14.1,2.1,9.4,9.4,0,0,0,3.9-4h5a13.4,13.4,0,0,1-5.7,6.7,16.3,16.3,0,0,1-8.8,2.3,16,16,0,0,1-11.5-4.5" style="fill:#fff"/><path d="M365,59.6a13.7,13.7,0,0,1-3.4-9.4c0-3.9,1.1-7,3.4-9.3a11.5,11.5,0,0,1,8.6-3.6,10.4,10.4,0,0,1,5.6,1.5,10.2,10.2,0,0,1,3.7,4V37.7h4.2V62.9h-4.2V57.7a10.2,10.2,0,0,1-3.7,4,9.7,9.7,0,0,1-5.6,1.6,11.2,11.2,0,0,1-8.6-3.7m15.4-2.5a9.5,9.5,0,0,0,2.5-6.8,9.6,9.6,0,0,0-2.5-6.8,8.3,8.3,0,0,0-12-.1,9,9,0,0,0-2.5,6.7,9.7,9.7,0,0,0,2.5,7,8.3,8.3,0,0,0,6,2.6,7.9,7.9,0,0,0,6-2.6" style="fill:#fff"/><path d="M397.2,37.7V42a7.8,7.8,0,0,1,7.6-4.7v4.4h-1.1a6.5,6.5,0,0,0-4.8,1.6c-1.1,1.1-1.7,3.1-1.7,5.8V62.9H393V37.7Z" style="fill:#fff"/><path d="M419.5,63.3a11.6,11.6,0,0,1-8.8-3.6,12.9,12.9,0,0,1-3.4-9.4,12.8,12.8,0,0,1,3.5-9.4,11.5,11.5,0,0,1,8.9-3.6,11.8,11.8,0,0,1,8.8,3.4,11.7,11.7,0,0,1,3.3,8.6,16.6,16.6,0,0,1-.2,2.4h-20a9,9,0,0,0,2.3,6,7.8,7.8,0,0,0,5.6,2.1,7.3,7.3,0,0,0,4.3-1.1,6.8,6.8,0,0,0,2.6-3h4.5a11.6,11.6,0,0,1-11.4,7.6m5.6-20.4a7.8,7.8,0,0,0-5.5-2.2,7.6,7.6,0,0,0-5.5,2.2,8.4,8.4,0,0,0-2.5,5.8h15.8a7.8,7.8,0,0,0-2.3-5.8" style="fill:#fff"/><path d="M125.5,89.7a4.6,4.6,0,0,1,0-6,3.7,3.7,0,0,1,2.8-1.1,3.4,3.4,0,0,1,1.8.4,4.9,4.9,0,0,1,1.2,1.3V82.7h1.3v8.1h-1.3V89.1a3,3,0,0,1-1.2,1.3,3.5,3.5,0,0,1-1.8.5,3.8,3.8,0,0,1-2.8-1.2m5-.8a2.9,2.9,0,0,0,.8-2.2,3.3,3.3,0,0,0-.8-2.2,3,3,0,0,0-2-.8,2.7,2.7,0,0,0-1.9.8,3.1,3.1,0,0,0-.8,2.2,3.3,3.3,0,0,0,.8,2.2,2.5,2.5,0,0,0,1.9.9,2.7,2.7,0,0,0,2-.9" style="fill:#fff"/><path d="M136.2,82.7V84a2.6,2.6,0,0,1,2.6-1.4,3.3,3.3,0,0,1,2.2.8,3.6,3.6,0,0,1,.9,2.6v4.8h-1.3V86.2a2.4,2.4,0,0,0-.6-1.8,2.2,2.2,0,0,0-3.2,0,2.4,2.4,0,0,0-.6,1.8v4.6h-1.4V82.7Z" style="fill:#fff"/><polygon points="153.9 80.6 153.9 81.6 149.8 81.6 149.8 85.1 153.5 85.1 153.5 86.2 149.8 86.2 149.8 89.7 153.9 89.7 153.9 90.8 148.5 90.8 148.5 80.6 153.9 80.6" style="fill:#1d60a9"/><rect x="155.9" y="79.9" width="1.3" height="10.9" style="fill:#1d60a9"/><path d="M162.9,90.9a3.8,3.8,0,0,1-2.8-1.1,4.1,4.1,0,0,1-1.1-3.1,4,4,0,0,1,1.1-3,3.6,3.6,0,0,1,2.8-1.1,3.9,3.9,0,0,1,2.9,1,4,4,0,0,1,1,2.8v.8h-6.5a3,3,0,0,0,.8,1.9,2.4,2.4,0,0,0,1.8.7,2.3,2.3,0,0,0,1.4-.4,1.8,1.8,0,0,0,.8-.9h1.5a3.3,3.3,0,0,1-1.4,1.7,3.5,3.5,0,0,1-2.3.7m1.8-6.5a2.4,2.4,0,0,0-1.8-.7,2.8,2.8,0,0,0-1.8.6,3.7,3.7,0,0,0-.8,1.9h5.1a2.3,2.3,0,0,0-.7-1.8" style="fill:#1d60a9"/><path d="M172.8,82.6a3.6,3.6,0,0,1,2.8,1.1,4.6,4.6,0,0,1,0,6,3.8,3.8,0,0,1-2.8,1.2,3.5,3.5,0,0,1-1.8-.5,3,3,0,0,1-1.2-1.3v5.5h-1.3V82.7h1.3v1.6A4.9,4.9,0,0,1,171,83a3.4,3.4,0,0,1,1.8-.4m-.2,7.2a2.5,2.5,0,0,0,1.9-.9,3.4,3.4,0,0,0,0-4.4,2.7,2.7,0,0,0-1.9-.8,3,3,0,0,0-2,.8,3.3,3.3,0,0,0-.8,2.2,3.1,3.1,0,0,0,.8,2.2,2.7,2.7,0,0,0,2,.9" style="fill:#1d60a9"/><path d="M179.7,79.9V84a2.7,2.7,0,0,1,2.6-1.4,3,3,0,0,1,3.2,3.4v4.8h-1.3V86.2a2.4,2.4,0,0,0-.6-1.8,2.1,2.1,0,0,0-1.7-.7,1.9,1.9,0,0,0-1.6.7,2.4,2.4,0,0,0-.6,1.8v4.6h-1.3V79.9Z" style="fill:#1d60a9"/><path d="M188.2,89.7a4.6,4.6,0,0,1,0-6,3.4,3.4,0,0,1,2.8-1.1,3.9,3.9,0,0,1,1.8.4,3.3,3.3,0,0,1,1.1,1.3V82.7h1.4v8.1h-1.4V89.1a2.4,2.4,0,0,1-1.1,1.3,4.1,4.1,0,0,1-1.8.5,3.6,3.6,0,0,1-2.8-1.2m4.9-.8a2.6,2.6,0,0,0,.8-2.2,2.9,2.9,0,0,0-.8-2.2,2.7,2.7,0,0,0-1.9-.8,2.6,2.6,0,0,0-1.9.8,2.7,2.7,0,0,0-.8,2.2,2.9,2.9,0,0,0,.8,2.2,2.5,2.5,0,0,0,3.8,0" style="fill:#1d60a9"/><path d="M198.8,82.7V84a2.9,2.9,0,0,1,2.7-1.4,3.3,3.3,0,0,1,2.2.8,3.6,3.6,0,0,1,.9,2.6v4.8h-1.3V86.2a2.4,2.4,0,0,0-.6-1.8,1.9,1.9,0,0,0-1.6-.7,2.1,2.1,0,0,0-1.7.7,2.4,2.4,0,0,0-.6,1.8v4.6h-1.3V82.7Z" style="fill:#1d60a9"/><path d="M209.4,89.7h1.1v1.1h-1.4a1.9,1.9,0,0,1-2.1-2.1V83.8h-1V82.7h1v-2h1.4v2h2.1v1.1h-2.1v4.9a.8.8,0,0,0,1,1" style="fill:#1d60a9"/><path d="M211.7,85a2.1,2.1,0,0,1,.8-1.7,3.2,3.2,0,0,1,2.2-.7,3.3,3.3,0,0,1,2.1.6,3.1,3.1,0,0,1,.9,1.9h-1.4a1.5,1.5,0,0,0-1.6-1.5c-.6,0-1,.1-1.2.4a1.1,1.1,0,0,0,0,1.8l1.2.4,1.4.4a1.9,1.9,0,0,1,1.2.7,2,2,0,0,1,.5,1.4,2.3,2.3,0,0,1-.8,1.6,3.9,3.9,0,0,1-2.3.6,2.8,2.8,0,0,1-2.1-.7,2,2,0,0,1-.9-1.8h1.4a1.2,1.2,0,0,0,.4,1,1.9,1.9,0,0,0,1.3.5,2.1,2.1,0,0,0,1.2-.4,1,1,0,0,0,.5-.8,1,1,0,0,0-.4-.9,1.9,1.9,0,0,0-.9-.4l-1.1-.3-1.2-.3-.9-.7a2,2,0,0,1-.3-1.1" style="fill:#1d60a9"/><polygon points="224.1 90.8 224.1 80.6 229.9 80.6 229.9 81.6 225.5 81.6 225.5 85.1 229 85.1 229 86.2 225.5 86.2 225.5 90.8 224.1 90.8" style="fill:#1d60a9"/><path d="M231.9,89.8a4.5,4.5,0,0,1-1.1-3.1,4.1,4.1,0,0,1,1.2-3,3.8,3.8,0,0,1,2.9-1.1,3.6,3.6,0,0,1,2.9,1.1,4.1,4.1,0,0,1,1.2,3,4.1,4.1,0,0,1-1.2,3.1,4.4,4.4,0,0,1-3,1.1,4.2,4.2,0,0,1-2.9-1.1m2.9,0a3,3,0,0,0,2-.8,3.4,3.4,0,0,0,.8-2.3,3.1,3.1,0,0,0-.8-2.2,2.4,2.4,0,0,0-1.9-.8,2.2,2.2,0,0,0-1.9.8,3.1,3.1,0,0,0-.8,2.2,3.7,3.7,0,0,0,.7,2.3,2.7,2.7,0,0,0,1.9.8" style="fill:#1d60a9"/><path d="M241.3,89.8a4.1,4.1,0,0,1-1.2-3.1,4.1,4.1,0,0,1,1.2-3,3.9,3.9,0,0,1,2.9-1.1,3.6,3.6,0,0,1,2.9,1.1,4.1,4.1,0,0,1,1.2,3,4.1,4.1,0,0,1-1.2,3.1,4.4,4.4,0,0,1-3,1.1,3.9,3.9,0,0,1-2.8-1.1m2.8,0a3,3,0,0,0,2-.8,3.4,3.4,0,0,0,.8-2.3,2.7,2.7,0,0,0-.8-2.2,2.7,2.7,0,0,0-3.8,0,3.1,3.1,0,0,0-.8,2.2,3.2,3.2,0,0,0,.8,2.3,2.3,2.3,0,0,0,1.8.8" style="fill:#1d60a9"/><path d="M252.6,89.7h1.1v1.1h-1.3a1.9,1.9,0,0,1-2.1-2.1V83.8h-1.1V82.7h1.1v-2h1.3v2h2.1v1.1h-2.1v4.9a1,1,0,0,0,.3.8l.7.2" style="fill:#1d60a9"/><path d="M260.6,89.4a5,5,0,0,1-1.5-3.7,5.2,5.2,0,0,1,1.5-3.8,5.3,5.3,0,0,1,3.7-1.4,5.1,5.1,0,0,1,2.8.7,4.1,4.1,0,0,1,1.9,2.2h-1.6a3.2,3.2,0,0,0-3.1-1.7,3.3,3.3,0,0,0-2.7,1.1,3.6,3.6,0,0,0-1.1,2.9,3.8,3.8,0,0,0,1.1,2.9,3.7,3.7,0,0,0,2.7,1.1,3.5,3.5,0,0,0,1.8-.5,3,3,0,0,0,1.3-1.2H269a4.3,4.3,0,0,1-1.9,2.1,5.1,5.1,0,0,1-2.8.8,5,5,0,0,1-3.7-1.5" style="fill:#fff"/><path d="M271.7,89.8a4.1,4.1,0,0,1-1.1-3.1,4,4,0,0,1,1.1-3,3.9,3.9,0,0,1,2.9-1.1,4,4,0,0,1,3,1.1,4.4,4.4,0,0,1,1.1,3,4.1,4.1,0,0,1-1.2,3.1,4.4,4.4,0,0,1-3,1.1,3.9,3.9,0,0,1-2.8-1.1m2.8,0a2.8,2.8,0,0,0,2.8-3.1,2.7,2.7,0,0,0-.8-2.2,2.7,2.7,0,0,0-3.8,0,3.1,3.1,0,0,0-.8,2.2,3.2,3.2,0,0,0,.8,2.3,2.5,2.5,0,0,0,1.8.8" style="fill:#fff"/><path d="M281.7,82.7V84a2.9,2.9,0,0,1,2.7-1.4,3.3,3.3,0,0,1,1.7.4,2.8,2.8,0,0,1,1.1,1.3,3.7,3.7,0,0,1,1.2-1.3,3.3,3.3,0,0,1,1.7-.4,3,3,0,0,1,3.2,3.4v4.8H292V86.2a2.4,2.4,0,0,0-.6-1.8,2.1,2.1,0,0,0-1.7-.7,2,2,0,0,0-1.6.7,2.4,2.4,0,0,0-.6,1.8v4.6h-1.3V86.2a2.4,2.4,0,0,0-.6-1.8,1.9,1.9,0,0,0-1.6-.7,2.1,2.1,0,0,0-1.7.7,2.4,2.4,0,0,0-.6,1.8v4.6h-1.3V82.7Z" style="fill:#fff"/><path d="M299.8,82.6a3.3,3.3,0,0,1,2.7,1.1,4.6,4.6,0,0,1,0,6,3.6,3.6,0,0,1-4.5.7,2.2,2.2,0,0,1-1.2-1.3v5.5h-1.4V82.7h1.4v1.6A2.9,2.9,0,0,1,298,83a3.4,3.4,0,0,1,1.8-.4m-.3,7.2a2.3,2.3,0,0,0,1.9-.9,3.4,3.4,0,0,0,0-4.4,2.6,2.6,0,0,0-1.9-.8,2.7,2.7,0,0,0-1.9.8,2.9,2.9,0,0,0-.8,2.2,2.7,2.7,0,0,0,.8,2.2,2.5,2.5,0,0,0,1.9.9" style="fill:#fff"/><path d="M305.9,89.7a4.6,4.6,0,0,1,0-6,3.3,3.3,0,0,1,2.7-1.1,3.4,3.4,0,0,1,1.8.4,3.7,3.7,0,0,1,1.2,1.3V82.7H313v8.1h-1.4V89.1a2.5,2.5,0,0,1-1.2,1.3,3.6,3.6,0,0,1-4.5-.7m4.9-.8a2.9,2.9,0,0,0,.8-2.2,3.3,3.3,0,0,0-.8-2.2,2.7,2.7,0,0,0-1.9-.8,3,3,0,0,0-2,.8,3.1,3.1,0,0,0-.8,2.2,2.9,2.9,0,0,0,.9,2.2,2.3,2.3,0,0,0,1.9.9,2.5,2.5,0,0,0,1.9-.9" style="fill:#fff"/><path d="M316.5,82.7V84a2.8,2.8,0,0,1,2.7-1.4,3.5,3.5,0,0,1,2.2.8,3.6,3.6,0,0,1,.9,2.6v4.8H321V86.2a2.4,2.4,0,0,0-.6-1.8,2.1,2.1,0,0,0-1.7-.7,2,2,0,0,0-1.6.7,2.4,2.4,0,0,0-.6,1.8v4.6h-1.3V82.7Z" style="fill:#fff"/><polygon points="326.7 90.6 323.5 82.7 325 82.7 327.4 89.2 330 82.7 331.4 82.7 326.5 94.6 325.1 94.6 326.7 90.6" style="fill:#fff"/></svg>